# AST/ASF file generated using VICON BodyLanguage
# -----------------------------------------------
:version 1.10
:name VICON
:units
  mass 1.0
  length 0.45
  angle deg
:documentation
   .ast/.asf automatically generated from VICON data using
   VICON BodyBuilder and BodyLanguage model FoxedUp or BRILLIANT.MOD
:root
   order TX TY TZ RX RY RZ
   axis XYZ
   position 0 0 0  
   orientation 0 0 0 
:bonedata
  begin
     id 1 
     name lhipjoint
     direction 0.541323 -0.757556 0.364798 
     length 2.47576 
     axis 0 0 0  XYZ
  end
  begin
     id 2 
     name lfemur
     direction 0.34202 -0.939693 0  
     length 7.46493  
     axis 0 0 20  XYZ
    dof rx ry rz
    limits (-160.0 20.0)
           (-70.0 70.0)
           (-60.0 70.0)
  end
  begin
     id 3 
     name ltibia
     direction 0.34202 -0.939693 0   
     length 7.73805   
     axis 0 0 20   XYZ
    dof rx
    limits (-10.0 170.0)
  end
  begin
     id 4 
     name lfoot
     direction 0.107174 -0.294458 0.949636   
     length 2.25864   
     axis -90 7.62852e-016 20   XYZ
    dof rx rz
    limits (-45.0 90.0)
           (-70.0 20.0)
  end
  begin
     id 5 
     name ltoes
     direction 1.53606e-011 -4.21934e-011 1   
     length 1.12451   
     axis -90 7.62852e-016 20   XYZ
    dof rx
    limits (-90.0 20.0)
  end
  begin
     id 6 
     name rhipjoint
     direction -0.524745 -0.766967 0.36933   
     length 2.44538  
     axis 0 0 0  XYZ 
  end
  begin
     id 7 
     name rfemur
     direction -0.34202 -0.939693 0   
     length 7.61604   
     axis 0 0 -20   XYZ
    dof rx ry rz
    limits (-160.0 20.0)
           (-70.0 70.0)
           (-70.0 60.0)
  end
  begin
     id 8 
     name rtibia
     direction -0.34202 -0.939693 0   
     length 7.61056   
     axis 0 0 -20   XYZ
    dof rx
    limits (-10.0 170.0)
 end
 begin
     id 9 
     name rfoot
     direction -0.12616 -0.346623 0.929482   
     length 2.46372  
     axis -90 -7.62852e-016 -20   XYZ
    dof rx rz
    limits (-45.0 90.0)
           (-20.0 70.0)
  end
  begin
     id 10 
     name rtoes
     direction -1.53531e-011 -4.22004e-011 1   
     length 1.21611   
     axis -90 -7.62852e-016 -20   XYZ
    dof rx
    limits (-90.0 20.0)
  end
  begin
     id 11 
     name lowerback
     direction -0.000778023 0.997293 -0.0735223   
     length 2.06139   
     axis 0 0 0   XYZ
    dof rx ry rz
    limits (-20.0 45.0)
           (-30.0 30.0)
           (-30.0 30.0)
  end
  begin
     id 12 
     name upperback
     direction 0.0222598 0.999722 -0.0078355   
     length 2.06383   
     axis 0 0 0   XYZ
    dof rx ry rz
    limits (-20.0 45.0)
           (-30.0 30.0)
           (-30.0 30.0)
  end
  begin
     id 13 
     name thorax
     direction 0.0219654 0.999405 0.0265994   
     length 2.07163   
     axis 0 0 0   XYZ
    dof rx ry rz
    limits (-20.0 45.0)
           (-30.0 30.0)
           (-30.0 30.0)
  end
  begin
     id 14 
     name lowerneck
     direction 0.0213282 0.988147 0.15202   
     length 1.75969   
     axis 0 0 0   XYZ
    dof rx ry rz
    limits (-20.0 45.0)
           (-30.0 30.0)
           (-30.0 30.0)
  end
  begin
     id 15 
     name upperneck
     direction -0.0546456 0.982624 -0.177379   
     length 1.79244   
     axis 0 0 0   XYZ
    dof rx ry rz
    limits (-20.0 45.0)
           (-30.0 30.0)
           (-30.0 30.0)
  end
  begin
     id 16
     name head
     direction -0.0199987 0.996855 -0.076686  
     length 1.80555  
     axis 0 0 0   XYZ
    dof rx ry rz
    limits (-20.0 45.0)
           (-30.0 30.0)
           (-30.0 30.0)
  end
  begin
     id 17 
     name lclavicle
     direction 0.929565 0.363219 -0.063096  
     length 3.55722  
     axis 0 0 0   XYZ
    dof ry rz
    limits (-20.0 10.0)
           (0.0 20.0)
  end
  begin
     id 18 
     name lhumerus
     direction 1 -4.48993e-011 -2.36203e-027   
     length 4.92785   
     axis 180 -30 -90   XYZ
    dof rx ry rz
    limits (-60.0 90.0)
           (-90.0 90.0)
           (-90.0 90.0)
  end
  begin
     id 19
     name lradius
     direction 1 -4.48947e-011 2.02997e-027   
     length 3.44052   
     axis 180 -30 -90   XYZ
    dof rx
    limits (-10.0 170.0)
  end
  begin
     id 20
     name lwrist
     direction 1 -4.48962e-011 1.45991e-027   
     length 1.72026   
     axis 1.49639e-024 90 90   XYZ
    dof ry
    limits (-180.0 0.0)
 end
  begin
     id 21 
     name lhand
     direction 1 -4.48984e-011 2.91906e-027   
     length 0.654326   
     axis -1.863e-015 90 90   XYZ
    dof rx rz
    limits (-90.0 90.0)
           (-45.0 45.0)
  end
  begin
     id 22 
     name lfingers
     direction 1 -4.48961e-011 5.83968e-027   
     length 0.527534   
     axis -3.72598e-015 90 90   XYZ
    dof rx
    limits (0.0 90.0)
  end
  begin
     id 23
     name lthumb
     direction 0.707107 -6.34963e-011 0.707107   
     length 0.757437   
     axis -90 45 -6.68868e-015   XYZ
    dof rx rz
    limits (-45.0 45.0)
           (-45.0 45.0)
  end
  begin
     id 24 
     name rclavicle
     direction -0.902944 0.422599 -0.0781198   
     length 3.54432  
     axis 0 0 0   XYZ 
    dof ry rz
    limits (-10.0 20.0)
           (-20.0 0.0)
  end
  begin
     id 25 
     name rhumerus
     direction -1 -4.48953e-011 -4.75835e-028  
     length 5.09181   
     axis 180 30 90   XYZ
    dof rx ry rz
    limits (-90.0 60.0)
           (-90.0 90.0)
           (-90.0 90.0)
  end
  begin
     id 26 
     name rradius
     direction -1 -4.48986e-011 -3.25889e-027   
     length 3.49865   
     axis 180 30 90   XYZ
    dof rx
    limits (-10.0 170.0)
  end
  begin
     id 27 
     name rwrist
     direction -1 -4.48963e-011 1.45989e-027   
     length 1.74933   
     axis 1.49639e-024 -90 -90   XYZ
    dof ry
    limits (-180.0 0.0)
  end
  begin
     id 28
     name rhand
     direction -1 -4.49003e-011 2.91844e-027   
     length 0.66641   
     axis -1.863e-015 -90 -90   XYZ
    dof rx rz
    limits (-90.0 90.0)
           (-45.0 45.0)
  end
  begin
     id 29
     name rfingers
     direction -1 -4.48973e-011 5.83886e-027   
     length 0.537277   
     axis -3.72598e-015 -90 -90   XYZ
    dof rx
    limits (0.0 90.0)
  end
  begin
     id 30
     name rthumb
     direction -0.707107 -6.34976e-011 0.707107   
     length 0.771425   
     axis -90 -45 6.68868e-015   XYZ
    dof rx rz
    limits (-45.0 45.0)
           (-45.0 45.0)
  end
:hierarchy
  begin
    root lhipjoint rhipjoint lowerback
    lhipjoint lfemur
    lfemur ltibia
    ltibia lfoot
    lfoot ltoes
    rhipjoint rfemur
    rfemur rtibia
    rtibia rfoot
    rfoot rtoes
    lowerback upperback
    upperback thorax
    thorax lowerneck lclavicle rclavicle
    lowerneck upperneck
    upperneck head
    lclavicle lhumerus
    lhumerus lradius
    lradius lwrist
    lwrist lhand lthumb
    lhand lfingers
    rclavicle rhumerus
    rhumerus rradius
    rradius rwrist
    rwrist rhand rthumb
    rhand rfingers
  end

#!OML:ASF H:\LiuWeirdWalks\Patient Classification 1\Patient 1\Session 1\male.ASF
:FULLY-SPECIFIED
:DEGREES
101
root 0.134137 17.8966 -29.8114 3.27286 2.21465 -0.346196
lowerback 1.69684 0.015689 -1.89189
upperback -2.53218 0.0175749 1.91635
thorax -3.56051 0.0880234 3.03765
lowerneck -18.7172 -2.97657 -0.0964341
upperneck 22.9513 -3.60375 -2.11607
head 10.4065 -1.9238 -1.25263
rclavicle 2.88859e-015 -1.19271e-014
rhumerus -39.5186 -13.1469 -72.949
rradius 28.5353
rwrist -7.9223
rhand -18.7624 1.15351
rfingers 7.12502
rthumb 7.53448 -28.6923
lclavicle 2.88859e-015 -1.19271e-014
lhumerus -37.316 2.07699 81.7531
lradius 28.5178
lwrist 7.66566
lhand -12.7216 0.455329
lfingers 7.12502
lthumb 13.3616 30.0069
rfemur -10.7989 -0.993366 19.2077
rtibia 32.0238
rfoot -16.1496 -22.5045
rtoes -1.2127
lfemur -7.39994 -0.872423 -19.7268
ltibia 25.3201
lfoot -12.7154 16.723
ltoes -7.45233
102
root 0.13079 17.8953 -29.8134 3.28215 2.171 -0.357238
lowerback 1.73793 -0.00627118 -1.86235
upperback -2.50321 -0.0111916 1.92317
thorax -3.55173 0.0724991 3.02941
lowerneck -18.717 -2.9779 -0.165339
upperneck 22.9127 -3.60512 -2.03822
head 10.3957 -1.92102 -1.21306
rclavicle -8.13775e-016 -1.98785e-015
rhumerus -39.5566 -13.1912 -72.951
rradius 28.5079
rwrist -7.77176
rhand -18.6401 1.29667
rfingers 7.12502
rthumb 7.65257 -28.5449
lclavicle -8.13775e-016 -1.98785e-015
lhumerus -37.2705 2.10033 81.7864
lradius 28.5395
lwrist 7.64514
lhand -12.7187 0.580365
lfingers 7.12502
lthumb 13.3643 30.1318
rfemur -10.8422 -0.951129 19.2346
rtibia 32.057
rfoot -16.157 -22.5008
rtoes -1.18163
lfemur -7.4345 -0.859828 -19.703
ltibia 25.3589
lfoot -12.7347 16.7444
ltoes -7.43452
103
root 0.126561 17.8944 -29.8162 3.31122 2.14072 -0.372113
lowerback 1.77021 -0.0371762 -1.83325
upperback -2.50576 -0.0515376 1.93238
thorax -3.5699 0.0519965 3.02464
lowerneck -18.6189 -2.9588 -0.195682
upperneck 22.8295 -3.58079 -1.99678
head 10.3488 -1.90778 -1.18633
rclavicle 2.55935e-015 1.11319e-014
rhumerus -39.6529 -13.1842 -72.9634
rradius 28.508
rwrist -7.67207
rhand -18.5404 1.41038
rfingers 7.12502
rthumb 7.74879 -28.4276
lclavicle 2.55935e-015 1.11319e-014
lhumerus -37.2757 2.10798 81.8175
lradius 28.5739
lwrist 7.64453
lhand -12.7182 0.658102
lfingers 7.12502
lthumb 13.3649 30.2095
rfemur -10.9064 -0.905655 19.2716
rtibia 32.0868
rfoot -16.162 -22.5112
rtoes -1.15248
lfemur -7.50022 -0.839076 -19.6683
ltibia 25.4042
lfoot -12.7466 16.7434
ltoes -7.42363
104
root 0.120737 17.8942 -29.8203 3.36308 2.15406 -0.379253
lowerback 1.78452 -0.239296 -1.90987
upperback -2.51082 -0.318633 2.11958
thorax -3.56479 -0.0764952 3.27496
lowerneck -18.6275 -2.67952 -0.243784
upperneck 22.7355 -3.11761 -2.2115
head 10.3194 -1.72602 -1.18766
rclavicle 2.73329e-015 -4.77083e-015
rhumerus -39.5286 -12.5512 -73.0367
rradius 28.4885
rwrist -7.7047
rhand -18.4673 1.44906
rfingers 7.12502
rthumb 7.81928 -28.3863
lclavicle 2.73329e-015 -4.77083e-015
lhumerus -37.384 2.74697 81.8463
lradius 28.6274
lwrist 7.57136
lhand -12.7118 0.744854
lfingers 7.12502
lthumb 13.371 30.2958
rfemur -10.9922 -0.871002 19.3112
rtibia 32.1177
rfoot -16.1728 -22.5524
rtoes -1.11804
lfemur -7.60094 -0.801929 -19.6281
ltibia 25.4487
lfoot -12.751 16.6833
ltoes -7.41895
105
root 0.114176 17.8941 -29.8239 3.41925 2.16971 -0.368594
lowerback 1.79805 -0.410657 -1.98465
upperback -2.49492 -0.546143 2.26369
thorax -3.53833 -0.18658 3.47756
lowerneck -18.6905 -2.46554 -0.299265
upperneck 22.6593 -2.7595 -2.36625
head 10.3072 -1.58556 -1.18268
rclavicle 5.67158e-015 -4.37326e-015
rhumerus -39.3944 -12.0408 -73.1312
rradius 28.487
rwrist -7.777
rhand -18.4177 1.45507
rfingers 7.12502
rthumb 7.86716 -28.3785
lclavicle 5.67158e-015 -4.37326e-015
lhumerus -37.3873 3.23871 81.882
lradius 28.6435
lwrist 7.52915
lhand -12.6962 0.807135
lfingers 7.12502
lthumb 13.386 30.3571
rfemur -11.0795 -0.839149 19.3333
rtibia 32.1523
rfoot -16.1955 -22.5948
rtoes -1.08092
lfemur -7.69976 -0.751766 -19.6039
ltibia 25.4843
lfoot -12.751 16.6083
ltoes -7.42743
106
root 0.107558 17.8937 -29.8261 3.468 2.16569 -0.338742
lowerback 1.80648 -0.562467 -2.06266
upperback -2.45756 -0.748569 2.38445
thorax -3.48719 -0.28521 3.65619
lowerneck -18.7985 -2.27822 -0.355739
upperneck 22.5856 -2.4446 -2.49654
head 10.3047 -1.462 -1.17567
rclavicle -4.89507e-015 2.78299e-015
rhumerus -39.2381 -11.5779 -73.2438
rradius 28.4974
rwrist -7.89877
rhand -18.3828 1.42108
rfingers 7.12502
rthumb 7.90083 -28.4113
lclavicle -4.89507e-015 2.78299e-015
lhumerus -37.3394 3.66232 81.9278
lradius 28.6537
lwrist 7.49955
lhand -12.6631 0.829754
lfingers 7.12502
lthumb 13.4179 30.3776
rfemur -11.1561 -0.812886 19.3303
rtibia 32.1908
rfoot -16.2269 -22.6167
rtoes -1.04462
lfemur -7.775 -0.687575 -19.6033
ltibia 25.5073
lfoot -12.7489 16.5407
ltoes -7.44676
